inDegrees=no
num_controls=7
num_derivatives=13
num_iterations=116
num_multipliers=7
num_parameters=0
num_slacks=7
num_states=26
objective=0.472188
objective_accelerations=0.058057
objective_balance=0.006272
objective_effort=0.049460
objective_height=0.352534
objective_ligament=0.005866
solver_duration=1750.283135
status=Solve_Succeeded
success=true
DataType=double
version=3
OpenSimVersion=4.5
endheader
time	/jointset/ground_pelvis/pelvis_tilt/value	/jointset/ground_pelvis/pelvis_tx/value	/jointset/ground_pelvis/pelvis_ty/value	/jointset/hip_l/hip_flexion_l/value	/jointset/hip_l/hip_adduction_l/value	/jointset/hip_l/hip_rotation_l/value	/jointset/back/lumbar_extension/value	/jointset/patellofemoral_l/patellar_flexion_l/value	/jointset/knee_l/knee_flexion_l/value	/jointset/knee_l/knee_adduction_l/value	/jointset/knee_l/knee_rotation_l/value	/jointset/ankle_l/ankle_angle_l/value	/jointset/subtalar_l/subtalar_angle_l/value	/jointset/ground_pelvis/pelvis_tilt/speed	/jointset/ground_pelvis/pelvis_tx/speed	/jointset/ground_pelvis/pelvis_ty/speed	/jointset/hip_l/hip_flexion_l/speed	/jointset/hip_l/hip_adduction_l/speed	/jointset/hip_l/hip_rotation_l/speed	/jointset/back/lumbar_extension/speed	/jointset/patellofemoral_l/patellar_flexion_l/speed	/jointset/knee_l/knee_flexion_l/speed	/jointset/knee_l/knee_adduction_l/speed	/jointset/knee_l/knee_rotation_l/speed	/jointset/ankle_l/ankle_angle_l/speed	/jointset/subtalar_l/subtalar_angle_l/speed	/forceset/tau_hip_flexion_l	/forceset/tau_hip_adduction_l	/forceset/tau_hip_rotation_l	/forceset/tau_knee_flexion_l	/forceset/tau_ankle_angle_l	/forceset/tau_subtalar_angle_l	/forceset/tau_lumbar_extension	lambda_cid13_p0	lambda_cid13_p1	lambda_cid13_p2	lambda_cid13_p3	lambda_cid13_p4	lambda_cid13_p5	lambda_cid14_p0	/jointset/ground_pelvis/pelvis_tilt/accel	/jointset/ground_pelvis/pelvis_tx/accel	/jointset/ground_pelvis/pelvis_ty/accel	/jointset/hip_l/hip_flexion_l/accel	/jointset/hip_l/hip_adduction_l/accel	/jointset/hip_l/hip_rotation_l/accel	/jointset/back/lumbar_extension/accel	/jointset/patellofemoral_l/patellar_flexion_l/accel	/jointset/knee_l/knee_flexion_l/accel	/jointset/knee_l/knee_adduction_l/accel	/jointset/knee_l/knee_rotation_l/accel	/jointset/ankle_l/ankle_angle_l/accel	/jointset/subtalar_l/subtalar_angle_l/accel	gamma_cid13_p0	gamma_cid13_p1	gamma_cid13_p2	gamma_cid13_p3	gamma_cid13_p4	gamma_cid13_p5	gamma_cid14_p0
0.5	-0.2799124999177182	-0.0244391825702606	0.7702276941244863	1.130051498221208	-0.1377757530751265	-0.0148652208934677	-0.3129468116179633	0.8664448529648259	0.8664448529646159	0.1569496936447626	-0.018910115962418	0.2276465448525709	0.2036154953563246	-0.355967994654088	-0.1220209068597328	-0.5448345246133091	2.046927493167352	-0.2073324752112021	-0.08390566586413287	-0.645122965114005	2.252483349786066	2.252483349785995	0.01012015142592583	0.4316103465592965	0.6648728266796576	0.01747382894216642	-0.1541542794699162	-0.05090273445987914	-0.01692449581601745	-0.2963713876635184	0.06515841571407811	0.149590415455143	0.164922508930602	-5.328408675591484	-56.97848542849029	0.6222422486216607	-2.292452888873942	-597.9563283581922	-151.5359639929207	-17.01469880387224	0.5294100310007909	0.5556221901437228	-0.5340948342114372	-1.213261923730409	-0.2009356912483668	0.549252791388078	1.498009963377374	-1.44179360425662	-1.441793604256614	0.4234286934247205	-0.1837463279578223	-0.9072608613353202	-0.7001918724257051	-1.763208316023874e-07	1.061811504506769e-06	1.484473432266889e-06	1.440614193754408e-07	-7.634794143847118e-09	5.513536472148177e-07	-1.123598872781011e-07
0.51	-0.2834450608122784	-0.02563146195078722	0.7647538877963396	1.150457159767724	-0.1398587134669592	-0.01567460372382086	-0.3193223309091252	0.8888946386065119	0.8888946386062786	0.1570701294264456	-0.01460524209565165	0.2342488280978803	0.2037550904413136	-0.3504915423207593	-0.1164230708309238	-0.5498008908773072	2.033925417192015	-0.2092017206291532	-0.07796697717571303	-0.6298894321632122	2.237157080311317	2.237157080311156	0.01394233536467691	0.4293020044539622	0.6554821333602789	0.01045771198216115	-0.1603690005786301	-0.04887473564416265	-0.01838805172082709	-0.2997735747149943	0.06343631922527748	0.1470728515947383	0.1702982078662849	-6.385089415055321	-55.94127673573632	0.7323751186414152	-1.80828271978976	-602.8665843979214	-150.0279921778838	-15.68530978500665	0.5646269335489751	0.5636780075244001	-0.4590307432199298	-1.38562409582159	-0.1715370588150563	0.6166834029670596	1.549744104203346	-1.625525441887162	-1.625525441900577	0.3581059039743043	-0.2640276969147611	-0.9702078562550496	-0.700790095109867	-1.812771683090109e-07	1.076316852170827e-06	1.537812982876053e-06	1.447407176854398e-07	1.130047029524048e-09	6.101668301781035e-07	-1.169209777453388e-07
0.52	-0.2869212843636954	-0.02676740023137075	0.7592341931614077	1.17072441182221	-0.14195868993132	-0.01642449836821134	-0.3255427710421245	0.9111816651888878	0.911181665188637	0.1572280855794984	-0.01032538155895632	0.2407541575521924	0.2038248306592381	-0.3447005260254292	-0.1107526868711125	-0.5540121859703387	2.019245594761233	-0.2107356897169666	-0.07200802867136885	-0.6141071334814953	2.219931537924443	2.219931537924192	0.01762422569838767	0.4266076805448872	0.6454820684802632	0.003502855529278258	-0.1665837216873429	-0.0468467368284494	-0.0198516076256032	-0.3031757617664653	0.06171422273647668	0.1445552877343292	0.1756739068019686	-7.453412168995885	-54.88761139844764	0.8234165013235447	-1.310790877221214	-607.87300249347	-148.5047947823003	-14.35596631801706	0.5923228234010631	0.5701317763441913	-0.3830806000180752	-1.548811214819064	-0.1338804252208131	0.553304754572947	1.607763109562248	-1.821648186681808	-1.82164818668181	0.3953699724166581	-0.2609426887059375	-1.029135173462766	-0.6879397710012322	-1.860322804564051e-07	1.088887063296624e-06	1.589008051400884e-06	1.448624458319538e-07	1.090418829843206e-08	6.733602619843079e-07	-1.216796568866831e-07
0.53	-0.2903381099628059	-0.02784634915798047	0.7536761950910202	1.190836665366112	-0.1440723078918574	-0.01711471636913729	-0.3316028125122714	0.933287135428748	0.9332871354287235	0.1574220354292782	-0.006074343659278852	0.2471565516964898	0.2038254222321787	-0.3386186873918146	-0.1050324078475694	-0.5574579098472697	2.0029395975007	-0.2119278183202409	-0.06604601886672354	-0.5978271847197376	2.200861336072666	2.200861336072737	0.02114562798121066	0.4235430671955785	0.634906135889293	-0.003361953454132422	-0.1726403254666606	-0.04491878424118806	-0.02123504394116294	-0.3066553201836852	0.06006357592429213	0.1420932353065025	0.1808953066479091	-8.499673916897136	-53.84617979120963	0.8984308669379868	-0.7967966125359067	-612.8760664725119	-147.0157365855276	-13.030627725742	0.6229656207772071	0.5737085411086502	-0.3058873349349373	-1.71135741672757	-0.1031761104874035	0.6159910969824993	1.649207133703828	-1.99485744478339	-1.994857444735229	0.3276940851628783	-0.3380585112538896	-1.085397779127001	-0.6827266899956231	-1.915382609017049e-07	1.106351727316043e-06	1.633271051638024e-06	1.453940332906976e-07	2.167268087301396e-08	7.410420314068901e-07	-1.265292047734596e-07
0.54	-0.2936927469280933	-0.02886794877920487	0.7480876259711825	1.210777886250398	-0.1461961065449482	-0.01774564587130395	-0.3374978352199564	0.9551928733980158	0.9551928733982298	0.1576506330476861	-0.001855719463735809	0.2534504714194344	0.2037579706696883	-0.3322627992607783	-0.09928282579404811	-0.5601263958603706	1.985039062837884	-0.2127718282277811	-0.06015032891919192	-0.5811033809891278	2.179985083806576	2.179985083806967	0.02455377942194334	0.4201249397178476	0.6237871842098088	-0.0101057715569291	-0.1786969292459765	-0.04299083165393166	-0.02261848025668191	-0.3101348786008996	0.05841292911210717	0.1396311828786691	0.186116706493851	-9.556903703732543	-52.7887736292773	0.9548465869944922	-0.2726397342613646	-617.9723640922059	-145.5117978560004	-11.71270175584561	0.6471327228854206	0.5759923823398357	-0.2276330272520622	-1.867718695275664	-0.06425668607401394	0.5400407831502099	1.696534103332714	-2.182858269544695	-2.182858269544778	0.3727198039985953	-0.3316455143904027	-1.13773899116555	-0.6637415948784351	-1.978749892510704e-07	1.12923153070713e-06	1.669864529514313e-06	1.463790821161634e-07	3.354130680706484e-08	8.136896211709968e-07	-1.314792882934803e-07
0.55	-0.2969825567353911	-0.02983197702683881	0.74247626803884	1.230532348055777	-0.1483266054628478	-0.01831770771242964	-0.3432235703471759	0.9768810797105567	0.9768810797105455	0.157912428578588	0.002326847666249507	0.2596306181848002	0.203623765765545	-0.3256607887034707	-0.09352471940334053	-0.5620141429042576	1.965603333789217	-0.2132693730748911	-0.05426078001830587	-0.563988631297296	2.157376072838342	2.157376072838891	0.0277663398062915	0.4163241411792191	0.6121640837443616	-0.01670614803195194	-0.184512547226296	-0.04110434387349168	-0.02391293531733512	-0.3137032003201662	0.05692668499188721	0.1371750591695273	0.1911130724850005	-10.56064224070294	-51.7212713647455	0.984479989527892	0.2437617186637425	-622.9713721167833	-143.9820923311771	-10.40510461265265	0.6724532872199137	0.5754648001074472	-0.1496803843601402	-2.019033410698514	-0.03403179855257989	0.6135070243950966	1.727197375731267	-2.341911554041771	-2.34191155401812	0.2898569790938594	-0.414283234684691	-1.186290879110635	-0.6542057475361497	-1.83149212671661e-07	1.022180303879807e-06	1.43769542023029e-06	1.37256306051016e-07	2.298332552970659e-08	7.546530824893522e-07	-1.152825811496297e-07
0.5600000000000001	-0.3002052028241027	-0.0307384752040314	0.7368499656677782	1.250084945890463	-0.1504603855121221	-0.01883085504838104	-0.3487765075827526	0.9983347981046968	0.9983347981044696	0.1582052162780315	0.006469409568631295	0.2656921948845356	0.2034243530819071	-0.3188300555435044	-0.08777681170577659	-0.5631152836042671	1.944666268699099	-0.2134280545029233	-0.04836742788392863	-0.5465438026605507	2.133087500126945	2.133087500127651	0.03075221312827637	0.4121238941971662	0.6000731710838609	-0.02314732745585299	-0.1903281652066133	-0.03921785609305757	-0.02520739037795377	-0.3172715220394285	0.05544044087166668	0.1347189354603773	0.1961094384761518	-11.57516086847349	-50.63793671176617	0.9956621660792396	0.7690810247527629	-628.0671615215613	-142.4379210251731	-9.110257748823464	0.6928772434171871	0.573952643711103	-0.07031175847657442	-2.167985903565882	0.003515997741553612	0.5408014298484518	1.762549892315428	-2.518770618177457	-2.518770618177504	0.3273823915259369	-0.411535203075275	-1.231301430176236	-0.6319021846540794	-1.431484301777227e-07	7.592118407903993e-07	8.830112063539035e-07	1.16004140117133e-07	-1.448658440134176e-08	5.375955896728115e-07	-7.370972520913452e-08
0.5700000000000001	-0.3033584971298108	-0.03158762174623304	0.7312166115157079	1.269420786969271	-0.1525938750140534	-0.01928653092409553	-0.3541534980634241	1.019537137163998	1.019537137163863	0.1585280496953659	0.0105687027499445	0.2716306017622616	0.2031616387451628	-0.3117962001292408	-0.08205999846109018	-0.5634241400045179	1.9222645277055	-0.2132147980526247	-0.04277050406089154	-0.5288128268080672	2.10711984755005	2.1071198475504	0.03376999306260404	0.4076712194046581	0.5875440960059517	-0.02936124289104124	-0.1959515946159408	-0.03744385431181205	-0.0264389114869922	-0.320850784887208	0.05395766454936287	0.1323379281198406	0.2009148441624388	-12.58003367175433	-49.57956126099564	1.000139669967228	1.322163290555988	-633.0603345512277	-140.9395108950502	-7.84719336912035	0.7135108384480521	0.5694412023949776	0.008531303647115579	-2.311902540966469	0.03836882953975138	0.568721514388854	1.784591431564705	-2.674822166179395	-2.674822166232735	0.2823967895649556	-0.4717764594023778	-1.273320396341939	-0.6111537165026762	-1.186705881201717e-07	5.984186324193895e-07	5.350027104353415e-07	1.022953358484081e-07	-3.399163339150072e-08	4.10729274109283e-07	-4.832642259517902e-08
